<?xml version="1.0" encoding="UTF-8" standalone="no"?>
<!-- Created with Inkscape (http://www.inkscape.org/) -->

<svg
   width="1000"
   height="1000"
   viewBox="0 0 264.5833 264.5833"
   version="1.1"
   id="svg1"
   inkscape:version="1.3 (0e150ed6c4, 2023-07-21)"
   sodipodi:docname="settingsW2.svg"
   xmlns:inkscape="http://www.inkscape.org/namespaces/inkscape"
   xmlns:sodipodi="http://sodipodi.sourceforge.net/DTD/sodipodi-0.dtd"
   xmlns="http://www.w3.org/2000/svg"
   xmlns:svg="http://www.w3.org/2000/svg">
  <sodipodi:namedview
     id="namedview1"
     pagecolor="#ffffff"
     bordercolor="#000000"
     borderopacity="0.25"
     inkscape:showpageshadow="2"
     inkscape:pageopacity="0.0"
     inkscape:pagecheckerboard="true"
     inkscape:deskcolor="#fcfcfc"
     inkscape:document-units="px"
     inkscape:zoom="0.75187991"
     inkscape:cx="501.40986"
     inkscape:cy="499.41486"
     inkscape:current-layer="layer1"
     showgrid="false"
     inkscape:clip-to-page="true"
     inkscape:lockguides="false"
     showguides="true" />
  <defs
     id="defs1" />
  <g
     inkscape:label="Layer 1"
     inkscape:groupmode="layer"
     id="layer1"
     style="display:inline"
     transform="translate(-15.430935,-37.793461)">
    <circle
       style="fill:#ffffff;fill-opacity:1;stroke:#072a33;stroke-width:0;stroke-dasharray:none;stroke-opacity:1"
       id="path3"
       cx="147.72256"
       cy="170.0851"
       r="21.95829" />
    <path
       id="path4"
       style="fill:#cccccc;fill-opacity:1;stroke:#072a33;stroke-width:0;stroke-dasharray:none;stroke-opacity:1"
       inkscape:transform-center-x="1.9490234e-06"
       inkscape:transform-center-y="-76.041241"
       d="m 130.3531,70.402113 -4.00967,27.560484 A 74.731476,75.294507 0 0 0 96.326038,115.65785 l -26.247077,-10.45642 -8.477827,15.16145 -8.89124,14.92291 22.421781,17.69318 a 74.731476,75.294507 0 0 0 -2.140644,17.10614 74.731476,75.294507 0 0 0 2.140644,17.10614 l -22.421781,17.69318 8.89124,14.92291 8.47824,15.16145 26.246664,-10.45642 a 74.731476,75.294507 0 0 0 30.017392,17.69525 l 4.01009,27.56049 17.36907,-0.23854 17.36948,0.23854 4.00967,-27.56049 a 74.731476,75.294507 0 0 0 30.01739,-17.69525 l 26.24667,10.45642 8.47824,-15.16145 8.89124,-14.92291 -22.42179,-17.69359 a 74.731476,75.294507 0 0 0 2.14065,-17.10573 74.731476,75.294507 0 0 0 -1.99967,-17.21734 l 22.28081,-17.58198 -8.89124,-14.92291 -8.47824,-15.16145 -26.09825,10.3973 A 74.731476,75.294507 0 0 0 169.09884,97.944407 l -4.00719,-27.542294 -17.36906,0.238538 z m 17.36949,23.762887 0.008,0.625492 a 74.731476,75.294507 0 0 0 -0.008,0 74.731476,75.294507 0 0 0 -0.008,4.13e-4 z m -65.748543,37.96026 1.067015,0.59821 a 74.731476,75.294507 0 0 0 -0.01447,0.0273 z m 131.497073,0 -0.92025,0.54695 a 74.731476,75.294507 0 0 0 -0.0132,-0.0236 z M 83.026593,207.41947 a 74.731476,75.294507 0 0 0 0.01447,0.0273 l -1.067015,0.59821 z m 129.391977,0 1.05255,0.62549 -1.06701,-0.59821 a 74.731476,75.294507 0 0 0 0.0145,-0.0273 z m -64.70384,37.95985 a 74.731476,75.294507 0 0 0 0.008,4.1e-4 74.731476,75.294507 0 0 0 0.008,-4.1e-4 l -0.008,0.6259 z" />
    <circle
       style="fill:#343434;fill-opacity:1;stroke:#ffffff;stroke-width:110.578;stroke-dasharray:none;stroke-opacity:0"
       id="path1"
       cx="147.72258"
       cy="170.08511"
       r="41.267197" />
  </g>
</svg>
